<svg width="200" height="10" viewBox="0 0 200 10" fill="none" xmlns="http://www.w3.org/2000/svg">
<path d="M200 4.99982C200 7.59982 155.244 9.69983 100 9.69983C44.7557 9.69983 0 7.59982 0 4.99982C0 2.39982 44.7557 0.299805 100 0.299805C155.244 0.299805 200 2.29982 200 4.99982Z" fill="url(#paint0_radial_45_290)"/>
<path d="M99.9991 7.3996C151.458 7.3996 193.174 6.32509 193.174 4.9996C193.174 3.67412 151.458 2.59961 99.9991 2.59961C48.5397 2.59961 6.82373 3.67412 6.82373 4.9996C6.82373 6.32509 48.5397 7.3996 99.9991 7.3996Z" fill="url(#paint1_radial_45_290)"/>
<defs>
<radialGradient id="paint0_radial_45_290" cx="0" cy="0" r="1" gradientUnits="userSpaceOnUse" gradientTransform="translate(100.001 4.95964) scale(100.039 4.73145)">
<stop stop-color="#00F0FF"/>
<stop offset="1" stop-color="#00F0FF" stop-opacity="0"/>
</radialGradient>
<radialGradient id="paint1_radial_45_290" cx="0" cy="0" r="1" gradientUnits="userSpaceOnUse" gradientTransform="translate(99.9993 4.95943) scale(93.2045 2.41543)">
<stop stop-color="white"/>
<stop offset="0.9553" stop-color="#88C7FF" stop-opacity="0"/>
</radialGradient>
</defs>
</svg>
