<svg width="226" height="60" viewBox="0 0 226 60" fill="none" xmlns="http://www.w3.org/2000/svg">
    <path fill-rule="evenodd" clip-rule="evenodd" d="M0 0H59.576V59.674H0V0Z" fill="#FF000B"></path>
    <path d="M22.9343 7.5322H30.0735L24.5339 52.3645H13.8876L7.64477 0H14.6605L19.3633 43.7482H19.5478L22.9343 7.5322ZM43.5528 45.7272V34.0826H40.9057V28.0857H50.692V45.7272C50.692 47.0864 50.5685 48.172 50.323 48.9884C49.5428 51.5117 46.5485 52.7734 41.3372 52.7734C38.096 52.7734 35.8179 52.3659 34.506 51.551C32.8237 50.5033 31.9825 48.562 31.9825 45.7287V14.1709C31.9825 11.3376 32.8237 9.39633 34.506 8.34857C35.8194 7.53365 38.096 7.12619 41.3372 7.12619C46.5485 7.12619 49.5428 8.38786 50.323 10.9112C50.5685 11.7261 50.692 12.8132 50.692 14.1723V22.5573H43.5528V14.1709C43.5528 13.3938 43.3988 12.899 43.0908 12.6866C42.7828 12.4727 42.1988 12.3664 41.3372 12.3664C40.4757 12.3664 39.8902 12.4727 39.5837 12.6866C39.2757 12.9005 39.1217 13.3953 39.1217 14.1709V45.7287C39.1217 46.5043 39.2757 46.9991 39.5837 47.213C39.8917 47.4269 40.4757 47.5332 41.3372 47.5332C42.1988 47.5332 42.7842 47.4269 43.0908 47.213C43.3988 46.9991 43.5528 46.5043 43.5528 45.7272Z" fill="white"></path>
    <path fill-rule="evenodd" clip-rule="evenodd" d="M40.9406 28.0522H59.576V34.1364H40.9406V28.0522Z" fill="white"></path>
    <path d="M78.3915 27.9809H83.1045L79.4477 59.7119H72.419L68.8842 27.9809H73.5158L76.035 53.6131H76.1571L78.3915 27.9809ZM89.3197 59.7119H84.6067V27.9809H89.3197V59.7119ZM99.719 59.7119H95.0467V32.0599H91.4713V27.9794H103.293V32.0599H99.7176V59.7119H99.719ZM113.816 27.9809H118.163L113.368 47.9261V59.7119H108.737V47.8432L103.942 27.9794H108.737L111.256 41.8258H111.337L113.816 27.9809ZM131.569 59.7119H126.816L126.126 51.7999H122.428L121.616 59.7119H117.432L121.007 27.9809H127.994L131.569 59.7119ZM124.379 32.348L122.876 47.6365H125.719L124.379 32.348ZM142.416 55.6315V59.7119H132.178V55.6315L137.662 32.0599H132.178V27.9794H142.416V32.0599L136.972 55.6315H142.416ZM161.997 55.0145V46.7721H160.25V42.5272H166.709V55.0145C166.709 55.9764 166.627 56.7447 166.465 57.3224C165.95 59.108 163.973 60.0015 160.533 60.0015C158.393 60.0015 156.891 59.7134 156.023 59.1356C154.913 58.3935 154.357 57.0197 154.357 55.0145V32.6783C154.357 30.6731 154.912 29.2993 156.023 28.5572C156.889 27.9809 158.393 27.6913 160.533 27.6913C163.972 27.6913 165.949 28.5848 166.465 30.3704C166.627 30.9481 166.709 31.7164 166.709 32.6783V38.6127H161.996V32.6783C161.996 32.1283 161.894 31.779 161.691 31.6277C161.487 31.4763 161.102 31.4007 160.533 31.4007C159.963 31.4007 159.578 31.4763 159.375 31.6277C159.172 31.779 159.07 32.1297 159.07 32.6783V55.0145C159.07 55.5631 159.172 55.9138 159.375 56.0651C159.578 56.2165 159.963 56.2921 160.533 56.2921C161.101 56.2921 161.487 56.2165 161.691 56.0651C161.896 55.9138 161.997 55.5631 161.997 55.0145ZM169.229 59.7119V27.9809H174.551C177.531 27.9809 179.425 28.4 180.239 29.2382C181.051 30.0764 181.458 32.006 181.458 35.0285V38.8194C181.458 42.6378 180.97 44.9051 179.995 45.6196C179.616 45.8946 179.142 46.0998 178.573 46.238L182.107 59.7134H177.226L173.861 46.1973V59.7134H169.229V59.7119ZM173.86 31.7717V42.6917H175.567C175.811 42.6917 176 42.6509 176.135 42.568C176.514 42.3483 176.703 41.2074 176.703 39.1482V34.8204C176.703 33.0072 176.527 32.0177 176.175 31.8532C176.066 31.7979 175.864 31.7703 175.567 31.7703H173.86V31.7717ZM183.894 32.6783C183.894 30.6454 184.449 29.2717 185.559 28.5572C186.427 27.9809 187.929 27.6913 190.069 27.6913C193.508 27.6913 195.485 28.5848 195.999 30.3704C196.162 30.9481 196.243 31.7164 196.243 32.6783V55.0145C196.243 55.9764 196.162 56.7447 195.999 57.3224C195.485 59.108 193.508 60.0015 190.069 60.0015C187.929 60.0015 186.427 59.7134 185.559 59.1356C184.449 58.4211 183.894 57.0474 183.894 55.0145V32.6783ZM191.532 55.0145V32.6783C191.532 32.1283 191.43 31.779 191.227 31.6277C191.023 31.4763 190.638 31.4007 190.069 31.4007C189.499 31.4007 189.107 31.4763 188.891 31.6277C188.674 31.779 188.565 32.1297 188.565 32.6783V55.0145C188.565 55.5631 188.674 55.9138 188.891 56.0651C189.107 56.2165 189.499 56.2921 190.069 56.2921C190.637 56.2921 191.023 56.2165 191.227 56.0651C191.43 55.9138 191.532 55.5631 191.532 55.0145ZM206.279 27.9809H210.952V55.2196C210.952 56.0171 210.883 56.7171 210.748 57.321C210.504 58.475 209.72 59.2579 208.392 59.6697C207.606 59.8894 206.428 60 204.857 60C201.417 60 199.482 59.1065 199.047 57.321C198.884 56.6341 198.803 55.9342 198.803 55.2196V27.9809H203.475V54.5604C203.475 55.192 203.544 55.6184 203.679 55.8381C203.895 56.1408 204.288 56.2907 204.857 56.2907C205.806 56.2907 206.279 55.7144 206.279 54.5604V27.9809ZM218.426 32.0599V44.3404H219.849C220.526 44.3404 220.946 44.0931 221.108 43.5983C221.19 43.3785 221.23 42.8285 221.23 41.9495V34.4901C221.23 33.6111 221.19 33.0611 221.108 32.8413C220.946 32.3189 220.526 32.0584 219.849 32.0584H218.426V32.0599ZM218.426 59.7119H213.754V27.9809H221.229C222.258 27.9809 223.071 28.0639 223.667 28.2283C224.723 28.5033 225.4 29.327 225.698 30.7007C225.861 31.3599 225.942 32.5139 225.942 34.1627V42.2391C225.942 44.3826 225.733 45.8728 225.313 46.711C224.893 47.5492 224.114 48.0643 222.977 48.2564C222.381 48.367 220.864 48.4209 218.426 48.4209V59.7119Z" fill="white" class="new-black-n-white"></path>
    <path d="M68.9235 22.5384V16.2227H70.7061C71.3178 16.2227 71.7623 16.2548 72.0456 16.3144C72.326 16.377 72.5803 16.5705 72.804 16.8951C73.0292 17.221 73.141 17.643 73.141 18.1625C73.141 18.6239 73.0524 19.0095 72.8752 19.3151C72.6979 19.6236 72.4684 19.8404 72.188 19.9656C71.9047 20.0922 71.4296 20.1518 70.7584 20.1518H70.0335V22.534H68.9235V22.5384ZM70.0349 17.2923V19.0808H70.6436C71.1347 19.0808 71.4819 19.0182 71.6882 18.896C71.8931 18.7723 71.9962 18.5351 71.9962 18.1815C71.9962 17.8439 71.9047 17.6096 71.7216 17.483C71.5415 17.3549 71.1579 17.2923 70.5754 17.2923H70.0349ZM75.7096 22.5384V16.2227H78.053C78.778 16.2227 79.3199 16.3494 79.6773 16.5982C80.0362 16.8499 80.2149 17.3142 80.2149 17.9894C80.2149 19.0022 79.7296 19.5887 78.7591 19.7531C79.1339 19.9757 79.5422 20.4938 79.9853 21.3029L80.6594 22.5369H79.3301L78.1344 20.4924C78.0153 20.2901 77.8831 20.1416 77.7363 20.0441C77.5911 19.9466 77.3615 19.8972 77.0462 19.8972H76.8225V22.5369H75.7096V22.5384ZM76.8211 18.896H77.6419C78.2041 18.896 78.5804 18.8421 78.7766 18.7344C78.9712 18.6268 79.0686 18.4085 79.0686 18.0796C79.0686 17.7667 78.9887 17.5572 78.8274 17.4509C78.6661 17.3447 78.287 17.2938 77.6884 17.2938H76.8196V18.896H76.8211ZM82.6803 19.4169C82.6803 18.3968 82.9157 17.5921 83.3849 17.0027C83.8542 16.4134 84.5079 16.118 85.3433 16.118C86.292 16.118 86.9734 16.4425 87.3918 17.0886C87.8102 17.7347 88.0209 18.5031 88.0209 19.3922C88.0209 20.3948 87.7855 21.1865 87.3119 21.77C86.8412 22.3507 86.1903 22.6432 85.3622 22.6432C84.5254 22.6432 83.8702 22.355 83.3951 21.7788C82.9171 21.2025 82.6803 20.4167 82.6803 19.4169ZM83.8251 19.3791C83.8251 20.034 83.9588 20.5622 84.2261 20.958C84.492 21.3567 84.8682 21.5547 85.3549 21.5547C85.8663 21.5547 86.247 21.348 86.4983 20.9289C86.7497 20.5127 86.876 19.9874 86.876 19.3587C86.876 17.9239 86.369 17.2079 85.3564 17.2079C84.3351 17.2079 83.8251 17.9297 83.8251 19.3791ZM90.5473 22.5384V16.2227H94.3218V17.2923H91.6558V18.7839H93.9513V19.8535H91.6558V22.5384H90.5473ZM96.886 22.5384V16.2227H100.971V17.2923H97.9974V18.6908H100.765V19.7546H97.9974V21.4746H101.075V22.5369H96.886V22.5384ZM103.386 20.4865L104.467 20.3599C104.595 21.1705 104.996 21.5736 105.671 21.5736C106.392 21.5736 106.754 21.2825 106.754 20.7048C106.754 20.4836 106.674 20.3177 106.515 20.2042C106.358 20.0936 105.969 19.9496 105.349 19.772C104.175 19.4344 103.586 18.8043 103.586 17.8802C103.586 17.3171 103.771 16.882 104.139 16.5764C104.508 16.2693 104.993 16.1165 105.596 16.1165C106.964 16.1165 107.667 16.7568 107.707 18.0316L106.595 18.084C106.507 17.4786 106.171 17.1745 105.584 17.1745C104.961 17.1745 104.651 17.3811 104.651 17.7958C104.651 17.9312 104.707 18.0621 104.817 18.1829C104.924 18.3066 105.27 18.4536 105.85 18.6195C106.772 18.8916 107.341 19.1943 107.548 19.5275C107.759 19.8579 107.862 20.2479 107.862 20.699C107.862 22.0014 107.127 22.6519 105.658 22.6519C104.293 22.6504 103.536 21.9286 103.386 20.4865ZM110.166 20.4865L111.247 20.3599C111.375 21.1705 111.776 21.5736 112.452 21.5736C113.172 21.5736 113.534 21.2825 113.534 20.7048C113.534 20.4836 113.454 20.3177 113.296 20.2042C113.139 20.0936 112.749 19.9496 112.129 19.772C110.955 19.4344 110.367 18.8043 110.367 17.8802C110.367 17.3171 110.551 16.882 110.919 16.5764C111.288 16.2693 111.773 16.1165 112.376 16.1165C113.745 16.1165 114.448 16.7568 114.487 18.0316L113.376 18.084C113.287 17.4786 112.951 17.1745 112.364 17.1745C111.741 17.1745 111.432 17.3811 111.432 17.7958C111.432 17.9312 111.487 18.0621 111.596 18.1829C111.703 18.3066 112.049 18.4536 112.629 18.6195C113.551 18.8916 114.119 19.1943 114.327 19.5275C114.538 19.8579 114.641 20.2479 114.641 20.699C114.641 22.0014 113.906 22.6519 112.437 22.6519C111.073 22.6504 110.316 21.9286 110.166 20.4865ZM117.194 22.5384V16.2227H118.309V22.5384H117.194ZM120.786 19.4169C120.786 18.3968 121.022 17.5921 121.491 17.0027C121.96 16.4134 122.614 16.118 123.449 16.118C124.398 16.118 125.08 16.4425 125.498 17.0886C125.916 17.7347 126.127 18.5031 126.127 19.3922C126.127 20.3948 125.892 21.1865 125.418 21.77C124.947 22.3507 124.296 22.6432 123.468 22.6432C122.632 22.6432 121.976 22.355 121.501 21.7788C121.025 21.2025 120.786 20.4167 120.786 19.4169ZM121.931 19.3791C121.931 20.034 122.065 20.5622 122.332 20.958C122.598 21.3567 122.974 21.5547 123.461 21.5547C123.971 21.5547 124.353 21.348 124.604 20.9289C124.856 20.5127 124.981 19.9874 124.981 19.3587C124.981 17.9239 124.474 17.2079 123.461 17.2079C122.443 17.2079 121.931 17.9297 121.931 19.3791ZM128.655 22.5384V16.2227H129.737L131.992 20.4385V16.2227H133.024V22.5384H131.912L129.691 18.4216V22.5384H128.655ZM140.811 22.5384H139.601L139.123 21.1064H136.919L136.465 22.5384H135.286L137.433 16.2227H138.605L140.811 22.5384ZM138.762 20.0383L138.008 17.6954L137.26 20.0383H138.762ZM143.044 22.5384V16.2227H144.161V21.4746H146.923V22.5369H143.044V22.5384ZM157.934 22.5384V16.2227H162.019V17.2923H159.045V18.6908H161.813V19.7546H159.045V21.4746H162.122V22.5369H157.934V22.5384ZM166.117 22.5384L164.149 16.2227H165.356L166.748 20.894L168.096 16.2227H169.274L167.307 22.5384H166.117ZM171.494 22.5384V16.2227H175.58V17.2923H172.606V18.6908H175.373V19.7546H172.606V21.4746H175.683V22.5369H171.494V22.5384ZM178.286 22.5384V16.2227H179.369L181.623 20.4385V16.2227H182.655V22.5384H181.544L179.322 18.4216V22.5384H178.286ZM186.718 22.5384V17.2923H185.084V16.2227H189.459V17.2923H187.828V22.5384H186.718ZM201.607 22.5384V17.2923H199.973V16.2227H204.347V17.2923H202.717V22.5384H201.607ZM206.714 22.5384V16.2227H210.799V17.2923H207.825V18.6908H210.593V19.7546H207.825V21.4746H210.902V22.5369H206.714V22.5384ZM218.461 22.5384H217.251L216.773 21.1064H214.569L214.116 22.5384H212.936L215.083 16.2227H216.256L218.461 22.5384ZM216.413 20.0383L215.659 17.6954L214.911 20.0383H216.413ZM220.683 22.5384V16.2227H222.346L223.341 20.5316L224.331 16.2227H225.999V22.5384H224.97V17.5703L223.876 22.5384H222.799L221.713 17.5703V22.5384H220.683Z" fill="white" class="new-black-n-white"></path>
</svg>