<svg width="486" height="485" viewBox="0 0 486 485" fill="none" xmlns="http://www.w3.org/2000/svg">
<g opacity="0.28">
<path opacity="0.28" d="M384.196 45.0049L332.696 117.205C371.696 145.105 397.196 190.805 397.196 242.405C397.196 327.305 328.396 396.105 243.496 396.105C227.196 396.105 211.496 393.605 196.796 388.905L169.796 473.405C192.996 480.805 217.696 484.805 243.396 484.805C377.296 484.805 485.796 376.305 485.796 242.405C485.796 161.005 445.696 89.0049 384.196 45.0049Z" fill="#009ECD"/>
<path opacity="0.28" d="M89.6963 242.405C89.6963 157.505 158.496 88.7049 243.396 88.7049C262.996 88.7049 281.796 92.4049 298.996 99.1049L331.096 16.4049C303.896 5.80488 274.296 0.00488281 243.396 0.00488281C109.496 0.00488281 0.996338 108.505 0.996338 242.405C0.996338 316.005 33.7963 382.005 85.6963 426.505L143.396 359.205C110.496 330.905 89.6963 289.105 89.6963 242.405Z" fill="#009ECD"/>
</g>
<g opacity="0.61">
<path opacity="0.61" d="M65.7964 242.404C65.7964 277.004 75.6964 309.304 92.8964 336.704L113.196 324.005C98.3964 300.405 89.7964 272.404 89.7964 242.404C89.7964 165.004 146.996 100.904 221.496 90.2045L218.096 66.6045C131.896 78.9045 65.7964 152.904 65.7964 242.404Z" fill="#009ECD"/>
<path opacity="0.61" d="M402.396 163.104L380.996 173.804C391.296 194.504 397.096 217.704 397.096 242.404C397.096 286.204 378.796 325.704 349.396 353.704L365.896 371.005C399.796 338.604 420.996 293.004 420.996 242.404C420.996 213.904 414.296 187.004 402.396 163.104Z" fill="#009ECD"/>
</g>
</svg>
