<svg width="242" height="255" viewBox="0 0 242 255" fill="none" xmlns="http://www.w3.org/2000/svg">
<path d="M94.4374 0.48155L89.0579 1.625L92.0308 15.6118L97.4104 14.4684L94.4374 0.48155Z" fill="#00F0FF" fill-opacity="0.7"/>
<path d="M81.4762 3.69991L76.2451 5.39941L80.6329 18.905L85.864 17.2055L81.4762 3.69991Z" fill="#00F0FF" fill-opacity="0.7"/>
<path d="M68.734 8.2192L63.7097 10.4561L69.4849 23.4278L74.5091 21.1909L68.734 8.2192Z" fill="#00F0FF" fill-opacity="0.7"/>
<path d="M56.6758 14.0986L51.9128 16.8486L59.0628 29.2324L63.8258 26.4824L56.6758 14.0986Z" fill="#00F0FF" fill-opacity="0.7"/>
<path d="M45.2994 21.1509L40.8499 24.3838L49.2554 35.9525L53.7049 32.7196L45.2994 21.1509Z" fill="#00F0FF" fill-opacity="0.7"/>
<path d="M34.7355 29.3707L30.6484 33.0508L40.1497 43.6028L44.2367 39.9227L34.7355 29.3707Z" fill="#00F0FF" fill-opacity="0.7"/>
<path d="M24.9828 38.6493L21.3027 42.7363L31.8548 52.2376L35.5348 48.1505L24.9828 38.6493Z" fill="#00F0FF" fill-opacity="0.7"/>
<path d="M16.426 48.8698L13.1931 53.3193L24.7618 61.7249L27.9947 57.2754L16.426 48.8698Z" fill="#00F0FF" fill-opacity="0.7"/>
<path d="M8.854 59.945L6.104 64.708L18.4878 71.858L21.2378 67.095L8.854 59.945Z" fill="#00F0FF" fill-opacity="0.7"/>
<path d="M2.48661 71.8097L0.249756 76.834L13.2215 82.6091L15.4583 77.5849L2.48661 71.8097Z" fill="#00F0FF" fill-opacity="0.7"/>
<path d="M89.0728 251.204L94.4524 252.348L97.4254 238.361L92.0458 237.217L89.0728 251.204Z" fill="#00F0FF" fill-opacity="0.7"/>
<path d="M102.273 253.567L107.743 254.142L109.237 239.92L103.767 239.346L102.273 253.567Z" fill="#00F0FF" fill-opacity="0.7"/>
<path d="M115.701 254.501H121.201V240.301H115.701V254.501Z" fill="#00F0FF" fill-opacity="0.7"/>
<path d="M129.076 254.122L134.546 253.547L133.052 239.326L127.582 239.9L129.076 254.122Z" fill="#00F0FF" fill-opacity="0.7"/>
<path d="M142.387 252.34L147.766 251.196L144.793 237.209L139.414 238.353L142.387 252.34Z" fill="#00F0FF" fill-opacity="0.7"/>
<path d="M155.392 249.024L160.623 247.324L156.235 233.819L151.004 235.518L155.392 249.024Z" fill="#00F0FF" fill-opacity="0.7"/>
<path d="M168.007 244.6L173.031 242.363L167.256 229.392L162.232 231.628L168.007 244.6Z" fill="#00F0FF" fill-opacity="0.7"/>
<path d="M180.118 238.691L184.881 235.941L177.731 223.558L172.968 226.308L180.118 238.691Z" fill="#00F0FF" fill-opacity="0.7"/>
<path d="M191.446 231.676L195.896 228.443L187.49 216.875L183.041 220.108L191.446 231.676Z" fill="#00F0FF" fill-opacity="0.7"/>
<path d="M202.129 223.446L206.216 219.766L196.715 209.214L192.628 212.894L202.129 223.446Z" fill="#00F0FF" fill-opacity="0.7"/>
<path d="M211.815 214.213L215.495 210.126L204.943 200.625L201.263 204.712L211.815 214.213Z" fill="#00F0FF" fill-opacity="0.7"/>
<path d="M220.459 203.886L223.692 199.437L212.124 191.031L208.891 195.48L220.459 203.886Z" fill="#00F0FF" fill-opacity="0.7"/>
<path d="M227.99 192.784L230.74 188.021L218.356 180.87L215.606 185.633L227.99 192.784Z" fill="#00F0FF" fill-opacity="0.7"/>
<path d="M234.346 181.017L236.583 175.993L223.611 170.218L221.374 175.242L234.346 181.017Z" fill="#00F0FF" fill-opacity="0.7"/>
<path d="M239.379 168.599L241.078 163.368L227.572 158.98L225.873 164.211L239.379 168.599Z" fill="#00F0FF" fill-opacity="0.7"/>
</svg>
