<svg width="313" height="332" viewBox="0 0 313 332" fill="none" xmlns="http://www.w3.org/2000/svg">
<path d="M282.1 258.3L281.3 257.7C300.9 231 311.3 199.3 311.3 166C311.3 115 286.2 67.2004 244.1 38.2004L244.7 37.4004C287.1 66.6004 312.3 114.7 312.3 166.1C312.3 199.5 301.8 231.4 282.1 258.3Z" fill="#00F0FF"/>
<path d="M62.1 290.7C43.2 276.4 27.6 257.8 16.9 236.8C5.70001 214.8 0 190.9 0 166C0 121.8 18.9 79.5004 51.8 49.9004L52.5 50.6004C19.8 80.0004 1.10001 122.1 1.10001 166C1.10001 215.1 23.6 260.3 62.8 289.9L62.1 290.7Z" fill="#00F0FF"/>
<path d="M231.2 40.2L241.2 23.5C216.3 8.6 187.2 0 156.1 0C116.9 0 80.7999 13.6 52.3999 36.4L64.5999 51.6C89.6999 31.5 121.5 19.5 156.1 19.5C183.6 19.5 209.3 27 231.2 40.2Z" fill="#009ECD" fill-opacity="0.51"/>
<path d="M268.3 260.2C241.4 292.2 201.1 312.5 156.1 312.5C126.8 312.5 99.5999 303.9 76.6999 289.1L66.0999 305.5C91.9999 322.3 122.9 332 156.1 332C207.1 332 252.8 309 283.2 272.7L268.3 260.2Z" fill="#009ECD" fill-opacity="0.51"/>
</svg>
