<svg width="420" height="421" viewBox="0 0 420 421" fill="none" xmlns="http://www.w3.org/2000/svg">
<path d="M361.4 104.301L361 103.701C351.5 90.3014 340.3 78.3014 327.6 67.8014L327 67.3014L342.9 47.9014L343.5 48.4014C357.9 60.2014 370.6 73.9014 381.4 89.1014L381.8 89.7014L361.4 104.301ZM329.1 67.2014C341.4 77.4014 352.4 89.2014 361.7 102.301L379.7 89.5014C369.2 74.9014 356.9 61.6014 343.1 50.1014L329.1 67.2014Z" fill="#00F0FF" fill-opacity="0.52"/>
<path d="M4.30019 249.602L4.2002 248.902C1.9002 236.302 0.700195 223.302 0.700195 210.502C0.700195 94.9018 94.8002 0.801758 210.4 0.801758C221.5 0.801758 232.6 1.70176 243.5 3.40176L244.2 3.50175L240.2 28.3018L239.5 28.2018C229.9 26.7018 220.1 25.9018 210.3 25.9018C108.5 25.9018 25.7002 108.702 25.7002 210.502C25.7002 221.802 26.7002 233.202 28.8002 244.302L28.9002 245.002L4.30019 249.602ZM210.3 2.20176C95.5002 2.20176 2.10019 95.6018 2.10019 210.402C2.10019 222.902 3.2002 235.502 5.5002 247.802L27.2002 243.802C25.2002 232.802 24.2002 221.602 24.2002 210.402C24.2002 107.802 107.7 24.3018 210.3 24.3018C219.9 24.3018 229.5 25.0018 239 26.5018L242.5 4.70176C231.8 3.10176 221 2.20176 210.3 2.20176Z" fill="#00F0FF" fill-opacity="0.52"/>
<path d="M251.1 416.102L246.1 391.502L246.8 391.402C332.5 374.202 394.8 298.102 394.8 210.502C394.8 205.402 394.6 200.202 394.1 195.002L394 194.302L419 192.202L419.1 192.902C419.6 198.802 419.8 204.702 419.8 210.502C419.8 259.202 402.7 306.702 371.7 344.102C341.1 381.102 298.5 406.602 251.7 416.002L251.1 416.102ZM247.9 392.702L252.3 414.402C348.6 394.702 418.5 309.002 418.5 210.502C418.5 205.002 418.3 199.402 417.8 193.802L395.8 195.702C396.2 200.702 396.4 205.702 396.4 210.602C396.4 253.802 381.2 295.902 353.7 329.202C326.7 361.602 289.1 384.202 247.9 392.702Z" fill="#00F0FF" fill-opacity="0.52"/>
<path d="M210.3 420.102C198.1 420.102 185.8 419.002 173.7 416.902L173 416.802L177.4 392.102L178.1 392.202C188.7 394.102 199.5 395.002 210.3 395.002C212.5 395.002 215 394.902 217.7 394.802H218.4L219.4 419.902H218.6C215.6 420.002 212.8 420.102 210.3 420.102ZM174.7 415.502C186.4 417.502 198.3 418.502 210.3 418.502C212.6 418.502 215.1 418.502 217.9 418.302L217 396.202C214.6 396.302 212.4 396.302 210.3 396.302C199.7 396.302 189 395.402 178.6 393.602L174.7 415.502Z" fill="#00F0FF" fill-opacity="0.52"/>
</svg>
