<svg width="444" height="441" viewBox="0 0 444 441" fill="none" xmlns="http://www.w3.org/2000/svg">
<path d="M443.598 220.402C443.598 185.302 435.398 151.402 419.998 120.902L422.798 119.502C421.098 116.202 419.398 113.002 417.598 109.802L414.798 111.402C413.598 109.202 412.298 107.102 410.898 104.902L413.598 103.202C410.698 98.6016 407.698 94.0016 404.498 89.6016L401.898 91.5016C399.398 88.0016 396.798 84.6016 394.098 81.3016L396.598 79.3016C386.898 67.4016 375.998 56.5016 364.098 46.9016L362.098 49.4016C322.898 17.5016 274.398 0.101562 223.298 0.101562C204.898 0.101562 186.698 2.40156 169.298 6.70156L168.498 3.60156C155.398 6.90156 142.498 11.5016 130.198 17.1016L131.498 20.0016C128.998 21.1016 126.598 22.3016 124.198 23.5016L122.798 20.7016C117.098 23.6016 111.498 26.7016 106.098 30.1016L107.798 32.8016C93.3977 41.7016 79.8978 52.3016 67.5977 64.6016C25.9977 106.202 3.09775 161.502 3.09775 220.402C3.09775 226.802 3.39775 233.202 3.89775 239.502L0.697754 239.802C1.09775 243.902 1.49775 248.102 2.09775 252.302L5.29774 251.802C5.89774 256.002 6.59775 260.202 7.39775 264.302L4.29774 264.902C4.89774 268.002 5.59775 271.002 6.39775 274.102L9.49776 273.302C9.89776 275.102 10.3978 276.802 10.8978 278.602L7.79774 279.402C9.19774 284.402 10.7978 289.502 12.4978 294.402L15.4978 293.302C26.2978 324.102 43.8977 352.202 67.5977 376.002C79.8978 388.302 93.4977 399.002 107.898 407.902L106.198 410.602C111.798 414.102 117.598 417.302 123.498 420.202L124.898 417.402C127.198 418.602 129.498 419.702 131.898 420.702L130.598 423.602C134.298 425.302 138.098 426.902 141.898 428.402L143.098 425.402C168.298 435.302 195.498 440.402 223.398 440.402C275.898 440.402 325.698 422.102 365.298 388.602L367.398 391.102C386.198 375.302 402.098 356.602 414.798 335.602L412.098 334.002C413.498 331.702 414.798 329.402 416.098 327.102L418.898 328.602C420.198 326.302 421.498 323.902 422.698 321.502L419.898 320.102C426.998 306.102 432.598 291.302 436.598 276.102L439.698 276.902C440.598 273.502 441.398 270.002 442.098 266.502L438.998 265.802C441.998 251.102 443.598 235.902 443.598 220.402ZM3.99776 220.402C3.99776 99.5016 102.398 1.10156 223.298 1.10156C344.198 1.10156 442.598 99.5016 442.598 220.402C442.598 341.302 344.198 439.702 223.298 439.702C102.398 439.702 3.99776 341.302 3.99776 220.402Z" fill="#00F0FF" fill-opacity="0.52"/>
</svg>
