<svg width="30" height="30" viewBox="0 0 30 30" fill="none" xmlns="http://www.w3.org/2000/svg">
<g clip-path="url(#clip0_87_445)">
<path fill-rule="evenodd" clip-rule="evenodd" d="M6.97623 4.56909C7.62259 4.56909 7.71174 4.81426 8.44725 5.32689C10.0966 6.48588 9.67311 6.01783 11.2556 5.43834C12.6597 4.92571 12.5037 4.79198 12.838 2.74146C13.0386 1.47103 13.9079 1.76077 15.8915 1.76077C17.4071 1.76077 16.9168 2.80832 17.3848 4.47994C17.6077 5.26003 18.3655 5.19316 19.3462 5.68351C20.0817 6.06241 20.3492 6.10698 20.9955 5.68351C21.2184 5.54978 21.3967 5.41605 21.6196 5.23774C23.2467 4.05646 22.9569 4.21248 25.0297 6.263C25.6538 6.88707 25.6538 7.17682 25.1857 7.84547C25.0297 8.04606 24.9183 8.22437 24.7623 8.42496C23.581 10.0074 24.049 9.67311 24.6062 11.2333C25.1189 12.682 25.1189 12.4814 27.2363 12.838C28.5513 13.0386 28.2615 13.7741 28.2615 15.9138C28.2615 17.3848 27.2363 16.9837 25.5201 17.4071C24.74 17.6077 24.7845 18.4101 24.3165 19.3462C23.7593 20.4606 24.0936 20.5052 24.7845 21.5527C25.7429 23.0238 25.8767 22.8232 24.4056 24.2942C22.9346 25.7652 23.1352 25.899 21.0624 24.3388C20.416 23.8484 20.0817 23.9153 19.3908 24.2719C17.6523 25.1634 17.6077 24.4056 17.2734 26.3893C17.2288 26.6568 17.162 27.0134 17.1174 27.3031C16.9168 28.5067 15.8692 28.2392 14.0639 28.2392C12.5483 28.2392 12.9941 27.0357 12.5706 25.4978C12.37 24.7177 11.523 24.74 10.6315 24.2719C9.62853 23.7593 9.4948 24.049 8.3581 24.8514C6.8425 25.9435 7.0208 25.6761 4.99257 23.6924C4.19019 22.89 4.65825 22.4443 5.32689 21.5305C5.46062 21.3522 5.59435 21.1516 5.75037 20.951C6.35215 20.104 5.86181 19.8366 5.41605 18.6776C4.92571 17.4071 4.92571 17.5186 3.63299 17.2957C1.49331 16.9391 1.73848 17.1397 1.73848 14.0862C1.73848 12.5706 2.8529 13.0386 4.47994 12.5929C5.21545 12.3923 5.19316 11.6122 5.68351 10.6315C6.06241 9.8737 6.0847 9.69539 5.63893 9.02674C4.25706 6.97623 3.92273 7.31055 5.66122 5.57206C5.92868 5.34918 6.55275 4.56909 6.97623 4.56909ZM7.19911 2.76374C5.75037 2.76374 5.14859 3.6107 4.39079 4.3685C3.52155 5.23774 2.67459 5.77266 2.67459 7.28826C2.67459 8.22437 3.34324 9.00446 3.85587 9.69539C4.10104 10.0297 3.9896 10.0297 3.72214 10.6761C3.63299 10.9212 3.63299 10.9881 3.32095 11.0327C2.16196 11.2333 1.04755 11.2779 0.356612 12.4591C0.222883 12.682 0 13.1946 0 13.529V16.5825C0 17.0282 0.356612 17.6969 0.579495 17.942C1.42645 18.8782 2.00594 18.9004 3.29866 19.0788C3.76672 19.1456 3.65527 19.1233 3.81129 19.5022C3.90045 19.7028 4.05646 20.0149 4.10104 20.2155L3.49926 21.0624C3.4101 21.1961 3.36553 21.2407 3.27637 21.3744C2.02823 23.3581 3.2318 24.4502 4.3685 25.5869C4.92571 26.1441 5.43834 26.7682 6.15156 27.0802C7.84547 27.7935 8.84844 26.679 9.91828 25.9435C10.1189 25.9881 10.364 26.1218 10.5869 26.211C10.9435 26.3447 10.9212 26.3224 10.9881 26.7459C11.1887 28.1278 11.3224 29.1085 12.7043 29.7771C12.8603 29.8663 13.2838 30 13.4844 30H16.5379C17.3848 30 18.3655 29.1976 18.6999 28.3507C19.1902 27.1694 18.7444 26.4785 19.3908 26.2333C20.3046 25.8767 19.9034 25.7429 21.2407 26.7013C22.0208 27.2585 23.1352 27.4591 23.9822 27.0134C24.7177 26.6345 25.052 26.1887 25.6538 25.5869C26.6345 24.6062 27.2585 24.2273 27.2585 22.734C27.2585 21.4636 25.9658 20.4606 25.9658 20.104C25.9658 20.0149 26.1887 19.5691 26.2333 19.4354C26.367 19.0788 26.3447 19.101 26.7682 19.0342C27.214 18.9673 27.9941 18.8559 28.373 18.6999C29.1976 18.3655 30.0223 17.3848 30.0223 16.5379V13.529C30.0223 12.7712 29.4651 11.9688 28.9747 11.6345C28.6404 11.4116 28.4175 11.3001 27.9718 11.1664C26.2333 10.6984 26.5899 11.3893 26.0773 10.1412C25.899 9.71768 26.055 9.73997 26.4116 9.20505C26.8574 8.58098 27.3254 7.9792 27.3254 7.13224C27.3254 6.53046 27.0579 5.90639 26.7905 5.54978C26.523 5.17088 26.0996 4.81426 25.7652 4.47994C25.3195 4.03417 24.6731 3.27637 24.0936 2.98663C23.581 2.71917 23.2912 2.74146 22.7563 2.74146C21.6642 2.74146 21.0178 3.52155 20.3715 3.92273C20.1486 4.05646 20.0371 4.01189 19.8366 3.90045C19.0565 3.54383 19.0788 3.74443 19.0119 3.25409C18.789 2.00594 18.6553 1.04755 17.5632 0.3789C17.318 0.222883 16.8053 0 16.471 0H13.529C12.682 0 12.0134 0.534918 11.6122 1.00297C10.9658 1.76077 10.9881 3.16493 10.8544 3.52155C10.7652 3.789 10.6538 3.69985 10.1412 3.92273C9.67311 4.12333 9.89599 4.12333 9.22734 3.67756C8.71471 3.34324 8.02377 2.76374 7.19911 2.76374Z" fill="#00F0FF" fill-opacity="0.52"/>
<path fill-rule="evenodd" clip-rule="evenodd" d="M10.9658 15.2457C10.9658 13.5295 11.679 12.1253 13.2392 11.3675C14.2868 10.8549 15.6909 10.8549 16.7608 11.3452C17.5186 11.7018 18.2987 12.4819 18.6776 13.2397C20.0149 15.9589 17.8529 19.0569 15.2675 19.0569C13.5513 19.0569 12.1471 18.3437 11.3893 16.7835C11.1887 16.4492 10.9658 15.7137 10.9658 15.2457ZM9.13818 15.0005C9.13818 18.21 11.7905 20.8623 15 20.8623C18.2095 20.8623 20.8618 18.21 20.8618 15.0005C20.8618 11.791 18.2095 9.13867 15 9.13867C11.7905 9.13867 9.13818 11.791 9.13818 15.0005Z" fill="#00F0FF" fill-opacity="0.52"/>
</g>
<defs>
<clipPath id="clip0_87_445">
<rect width="30" height="30" fill="white"/>
</clipPath>
</defs>
</svg>
