<svg width="576" height="768" viewBox="0 0 576 768" fill="none" xmlns="http://www.w3.org/2000/svg">
<g clip-path="url(#clip0_5_4)">
<rect width="576" height="768" fill="url(#paint0_radial_5_4)"/>
<rect width="576" height="768" fill="url(#paint1_radial_5_4)"/>
<mask id="mask0_5_4" style="mask-type:alpha" maskUnits="userSpaceOnUse" x="160" y="505" width="260" height="255">
<path d="M160.1 505.963L160.1 759.399L419.814 759.399L419.814 505.963L160.1 505.963Z" fill="url(#paint2_linear_5_4)"/>
</mask>
<g mask="url(#mask0_5_4)">
<path d="M255.784 565.094L255.784 769.322L257.303 769.322L257.303 565.094L255.784 565.094Z" fill="#009ECD" fill-opacity="0.3"/>
<path d="M328.586 758.994L327.573 760.107L269.454 701.786L269.454 563.17L270.972 563.17L270.972 701.178L328.586 758.994Z" fill="#009ECD" fill-opacity="0.3"/>
<path d="M277.048 567.119C277.048 567.119 277.048 641.034 277.048 698.647L347.52 769.119L358.658 765.879L286.363 693.584L286.363 568.638L277.048 567.119Z" fill="#009ECD" fill-opacity="0.3"/>
<path d="M375.567 772.056L374.453 773.17L292.337 691.054L292.337 567.525L293.856 567.525L293.856 690.345L375.567 772.056Z" fill="#009ECD" fill-opacity="0.3"/>
<path d="M387.515 774.486L386.502 775.498L299.121 688.116L299.121 575.32L300.64 575.32L300.64 687.509L387.515 774.486Z" fill="#009ECD" fill-opacity="0.3"/>
<path d="M417.385 794.635L416.372 795.749L305.905 685.282L305.905 578.257L307.424 578.257L307.424 684.674L417.385 794.635Z" fill="#009ECD" fill-opacity="0.3"/>
<path d="M436.015 794.028L434.901 795.142L319.371 679.612L319.371 638.807L343.571 614.708L343.571 575.523L345.09 575.523L345.09 615.316L320.89 639.515L320.89 679.004L436.015 794.028Z" fill="#009ECD" fill-opacity="0.3"/>
<path d="M412.119 779.852L411.107 780.864L312.689 682.446L312.689 635.971L336.787 611.873L336.787 575.219L338.306 575.219L338.306 612.48L314.208 636.68L314.208 681.839L412.119 779.852Z" fill="#009ECD" fill-opacity="0.3"/>
<path d="M262.771 717.075L262.771 765.98L264.29 765.98L264.29 717.075L262.771 717.075Z" fill="#009ECD" fill-opacity="0.3"/>
<path d="M299.213 741.199L321.623 763.608L322.697 762.534L300.287 740.125L299.213 741.199Z" fill="#009ECD" fill-opacity="0.3"/>
<path d="M262.771 704.622L280.997 722.948C280.693 723.455 280.49 724.062 280.49 724.67C280.49 726.594 282.009 728.112 283.933 728.112C285.857 728.112 287.375 726.594 287.375 724.67C287.375 722.746 285.857 721.227 283.933 721.227C283.224 721.227 282.515 721.43 282.009 721.835L264.188 704.014L264.188 557.906L262.67 557.906L262.67 704.622L262.771 704.622ZM285.958 724.771C285.958 725.885 285.047 726.695 284.034 726.695C282.92 726.695 282.11 725.783 282.11 724.771C282.11 723.657 283.022 722.847 284.034 722.847C285.047 722.746 285.958 723.657 285.958 724.771Z" fill="#009ECD" fill-opacity="0.3"/>
<path d="M340.027 692.571C340.027 694.495 341.546 696.014 343.469 696.014C344.077 696.014 344.583 695.811 345.09 695.609L439.255 789.774L440.369 788.661L346.305 694.596C346.71 693.989 347.013 693.28 347.013 692.47C347.013 690.546 345.495 689.027 343.571 689.027C341.546 689.129 340.027 690.647 340.027 692.571ZM345.495 692.571C345.495 693.685 344.583 694.495 343.571 694.495C342.558 694.495 341.647 693.584 341.647 692.571C341.647 691.458 342.558 690.647 343.571 690.647C344.583 690.647 345.495 691.559 345.495 692.571Z" fill="#009ECD" fill-opacity="0.3"/>
<path d="M212.043 640.325C212.043 642.249 213.562 643.768 215.486 643.768C215.992 643.768 216.498 643.666 217.004 643.464L241.811 668.271L241.811 791.496L243.33 791.496L243.33 667.663L218.219 642.553C218.726 641.945 219.029 641.236 219.029 640.325C219.029 638.401 217.511 636.882 215.587 636.882C213.663 636.882 212.043 638.401 212.043 640.325ZM217.511 640.325C217.511 641.439 216.599 642.249 215.587 642.249C214.473 642.249 213.663 641.338 213.663 640.325C213.663 639.211 214.574 638.401 215.587 638.401C216.599 638.401 217.511 639.312 217.511 640.325Z" fill="#009ECD" fill-opacity="0.3"/>
<path d="M224.598 643.667C224.598 645.49 226.117 647.008 227.94 647.008C228.547 647.008 229.155 646.806 229.661 646.502L248.798 665.639L248.798 793.623L250.317 793.623L250.317 665.031L230.775 645.49C231.079 644.983 231.281 644.376 231.281 643.667C231.281 641.844 229.762 640.326 227.94 640.326C226.117 640.326 224.598 641.844 224.598 643.667Z" fill="#009ECD" fill-opacity="0.3"/>
<path d="M169.212 645.793L169.212 769.322L170.731 769.322L170.731 645.793L169.212 645.793Z" fill="#009ECD" fill-opacity="0.3"/>
<path d="M162.428 645.793L162.428 771.448L163.947 771.448L163.947 645.793L162.428 645.793Z" fill="#009ECD" fill-opacity="0.3"/>
<path d="M210.119 761.627L209.005 762.741L176.199 729.935L176.199 645.794L177.718 645.794L177.718 729.226L210.119 761.627Z" fill="#009ECD" fill-opacity="0.3"/>
</g>
<mask id="mask1_5_4" style="mask-type:alpha" maskUnits="userSpaceOnUse" x="160" y="0" width="260" height="254">
<path d="M160.1 253.438L160.1 0.000640869L419.916 0.000629512L419.916 253.437L160.1 253.438Z" fill="url(#paint3_linear_5_4)"/>
</mask>
<g mask="url(#mask1_5_4)">
<path d="M322.712 -9.92216L322.712 194.306L324.231 194.306L324.231 -9.92216L322.712 -9.92216Z" fill="#009ECD" fill-opacity="0.3"/>
<path d="M251.43 0.40477L252.443 -0.709045L310.562 57.6129L310.562 196.229L309.043 196.229L309.043 58.2203L251.43 0.40477Z" fill="#009ECD" fill-opacity="0.3"/>
<path d="M302.968 192.28C302.968 192.28 302.968 118.365 302.968 60.7523L232.496 -9.71999L221.358 -6.47992L293.653 65.8149L293.653 190.863L302.968 192.28Z" fill="#009ECD" fill-opacity="0.3"/>
<path d="M204.448 -12.6566L205.562 -13.7703L287.679 68.346L287.679 191.875L286.16 191.875L286.16 69.0548L204.448 -12.6566Z" fill="#009ECD" fill-opacity="0.3"/>
<path d="M192.501 -15.087L193.513 -16.0996L280.895 71.282L280.895 184.078L279.376 184.078L279.376 71.8895L192.501 -15.087Z" fill="#009ECD" fill-opacity="0.3"/>
<path d="M162.631 -35.2356L163.644 -36.3494L274.111 74.1179L274.111 181.143L272.592 181.143L272.592 74.7254L162.631 -35.2356Z" fill="#009ECD" fill-opacity="0.3"/>
<path d="M144 -34.6285L145.114 -35.7423L260.644 79.7876L260.644 120.593L236.445 144.691L236.445 183.876L234.926 183.876L234.926 144.083L259.125 119.884L259.125 80.3952L144 -34.6285Z" fill="#009ECD" fill-opacity="0.3"/>
<path d="M167.896 -20.4522L168.909 -21.4647L267.327 76.9534L267.327 123.429L243.229 147.527L243.229 184.181L241.71 184.181L241.71 146.919L265.808 122.72L265.808 77.5609L167.896 -20.4522Z" fill="#009ECD" fill-opacity="0.3"/>
<path d="M315.726 -6.47959L315.726 42.4258L317.245 42.4258L317.245 -6.47959L315.726 -6.47959Z" fill="#009ECD" fill-opacity="0.3"/>
<path d="M257.423 -3.06487L279.833 19.3447L280.906 18.2708L258.497 -4.13881L257.423 -3.06487Z" fill="#009ECD" fill-opacity="0.3"/>
<path d="M317.245 54.7781L298.918 36.4513C299.222 35.9451 299.424 35.3375 299.424 34.73C299.424 32.8062 297.905 31.2874 295.981 31.2874C294.058 31.2874 292.539 32.8062 292.539 34.73C292.539 36.6538 294.058 38.1727 295.981 38.1727C296.69 38.1727 297.399 37.9701 297.905 37.5651L315.726 55.3857L315.726 201.494L317.245 201.494L317.245 54.7781ZM294.058 34.6288C294.058 33.515 294.969 32.7049 295.981 32.7049C297.095 32.7049 297.905 33.6163 297.905 34.6288C297.905 35.7426 296.994 36.5526 295.981 36.5526C294.969 36.6538 294.058 35.7426 294.058 34.6288Z" fill="#009ECD" fill-opacity="0.3"/>
<path d="M239.989 66.8266C239.989 64.9028 238.47 63.3839 236.546 63.3839C235.938 63.3839 235.432 63.5865 234.926 63.789L140.862 -30.2753L139.748 -29.1615L233.812 64.9027C233.407 65.5103 233.103 66.2191 233.103 67.0291C233.103 68.9529 234.622 70.4717 236.546 70.4717C238.47 70.2692 239.989 68.7504 239.989 66.8266ZM234.521 66.8266C234.521 65.7128 235.432 64.9027 236.445 64.9027C237.457 64.9027 238.368 65.8141 238.368 66.8266C238.368 67.9404 237.457 68.7504 236.445 68.7504C235.432 68.7504 234.521 67.8391 234.521 66.8266Z" fill="#009ECD" fill-opacity="0.3"/>
<path d="M367.973 119.074C367.973 117.15 366.454 115.631 364.53 115.631C364.024 115.631 363.517 115.733 363.011 115.935L338.204 91.1281L338.204 -32.0971L336.685 -32.0971L336.685 91.7356L361.796 116.846C361.29 117.454 360.986 118.163 360.986 119.074C360.986 120.998 362.505 122.517 364.429 122.517C366.352 122.517 367.973 120.998 367.973 119.074ZM362.505 119.074C362.505 117.96 363.416 117.15 364.429 117.15C365.542 117.15 366.352 118.061 366.352 119.074C366.352 120.188 365.441 120.998 364.429 120.998C363.416 120.998 362.505 120.086 362.505 119.074Z" fill="#009ECD" fill-opacity="0.3"/>
<path d="M355.417 115.732C355.417 113.909 353.898 112.391 352.076 112.391C351.468 112.391 350.861 112.593 350.355 112.897L331.218 93.7599L331.218 -34.2242L329.699 -34.2242L329.699 94.3675L349.241 113.909C348.937 114.416 348.735 115.023 348.735 115.732C348.735 117.554 350.253 119.073 352.076 119.073C353.898 119.073 355.417 117.554 355.417 115.732Z" fill="#009ECD" fill-opacity="0.3"/>
<path d="M409.284 -9.92252L409.284 113.606L410.803 113.606L410.803 -9.92252L409.284 -9.92252Z" fill="#009ECD" fill-opacity="0.3"/>
<path d="M416.068 -12.0489L416.068 113.606L417.587 113.606L417.587 -12.0489L416.068 -12.0489Z" fill="#009ECD" fill-opacity="0.3"/>
<path d="M369.896 -2.22731L371.01 -3.34107L403.816 29.4649L403.816 113.606L402.298 113.606L402.298 30.1737L369.896 -2.22731Z" fill="#009ECD" fill-opacity="0.3"/>
</g>
<g opacity="0.84">
<path opacity="0.84" d="M371.675 -245.356C379.675 -245.456 387.075 -158.356 388.275 -50.7556C389.475 56.8444 383.975 144.044 375.975 144.144C367.975 144.244 360.575 57.1444 359.375 -50.4556C358.175 -157.956 363.675 -245.256 371.675 -245.356Z" fill="url(#paint4_radial_5_4)"/>
<path opacity="0.84" d="M371.875 -232.055C375.975 -232.055 380.175 -150.855 381.175 -50.6553C382.275 49.5447 379.875 130.845 375.775 130.845C371.675 130.845 367.475 49.6448 366.475 -50.5552C365.475 -150.755 367.775 -232.055 371.875 -232.055Z" fill="url(#paint5_radial_5_4)"/>
</g>
<path d="M248.975 576.344C256.975 576.244 264.175 641.344 264.975 721.744C265.875 802.144 260.075 867.344 252.075 867.444C244.075 867.544 236.875 802.444 236.075 722.044C235.275 641.644 240.975 576.444 248.975 576.344Z" fill="url(#paint6_radial_5_4)"/>
<path d="M249.075 586.344C253.175 586.344 257.075 646.944 257.875 721.844C258.675 796.744 256.075 857.444 251.975 857.544C247.875 857.544 243.975 796.944 243.175 722.044C242.375 647.144 244.975 586.344 249.075 586.344Z" fill="url(#paint7_radial_5_4)"/>
<g opacity="0.48">
<path opacity="0.48" d="M287.675 566.944C295.675 566.844 303.275 673.144 304.675 804.444C306.075 935.644 300.775 1042.14 292.775 1042.24C284.775 1042.34 277.175 936.044 275.775 804.744C274.375 673.444 279.675 567.044 287.675 566.944Z" fill="url(#paint8_radial_5_4)"/>
<path opacity="0.48" d="M287.875 583.144C291.975 583.144 296.375 682.144 297.675 804.444C298.975 926.744 296.775 1025.84 292.675 1025.94C288.575 1025.94 284.175 926.944 282.875 804.644C281.575 682.344 283.775 583.244 287.875 583.144Z" fill="url(#paint9_radial_5_4)"/>
</g>
<path d="M470.01 725.258L470.01 618.531L459.655 618.531L459.655 725.258L470.01 725.258Z" fill="#009ECD" fill-opacity="0.3"/>
<path d="M470.01 606.485L470.01 578.165L459.655 578.165L459.655 606.485L470.01 606.485Z" fill="#009ECD" fill-opacity="0.3"/>
<path d="M122.674 84.4754L122.674 -0.588867L121.089 -0.588867L121.089 84.4754L122.674 84.4754Z" fill="#009ECD" fill-opacity="0.3"/>
<path d="M140.426 74.6479L140.426 41.0449L130.07 41.0449L130.07 74.6479L140.426 74.6479Z" fill="#009ECD" fill-opacity="0.3"/>
<path d="M140.426 115.12L140.426 81.5166L130.07 81.5166L130.07 115.12L140.426 115.12Z" fill="#009ECD" fill-opacity="0.3"/>
<path d="M140.426 155.59L140.426 121.987L130.07 121.987L130.07 155.59L140.426 155.59Z" fill="#009ECD" fill-opacity="0.3"/>
<path d="M522 237.169L522 186.87L511.644 186.87L511.644 237.169L522 237.169Z" fill="#009ECD" fill-opacity="0.3"/>
<path d="M522 178.416L522 116.916L511.644 116.916L511.644 178.416L522 178.416Z" fill="#009ECD" fill-opacity="0.3"/>
<path d="M522 306.911L522 269.504L511.644 269.504L511.644 306.911L522 306.911Z" fill="#009ECD" fill-opacity="0.3"/>
<path d="M135.46 701.799L135.46 671.261L125.104 671.261L125.104 701.799L135.46 701.799Z" fill="#009ECD" fill-opacity="0.3"/>
<path d="M135.46 751.253L135.46 710.676L125.104 710.676L125.104 751.253L135.46 751.253Z" fill="#009ECD" fill-opacity="0.3"/>
<path d="M144.441 768.899L144.441 735.719L154.797 742.693L154.797 768.899L144.441 768.899Z" fill="#009ECD" fill-opacity="0.3"/>
<path d="M66.0344 749.139L66.0344 722.404L59.7999 722.404L59.7999 749.139L66.0344 749.139Z" fill="#009ECD" fill-opacity="0.3"/>
<path d="M85.3719 284.403L75.0162 277.64L75.0162 287.573L85.3719 294.336L85.3719 284.403ZM85.3719 259.57L75.0162 252.807L75.0162 262.74L85.3719 269.503L85.3719 259.57ZM85.3719 272.039L75.0162 265.276L75.0162 275.209L85.3719 281.972L85.3719 272.039ZM85.3719 247.207L77.0239 241.712L75.1219 241.712L75.1219 250.377L85.4775 257.14L85.4775 247.207L85.3719 247.207ZM75.1219 290.109L75.1219 295.287L83.0471 295.287L75.1219 290.109ZM85.3719 241.712L80.828 241.712L85.3719 244.671L85.3719 241.712Z" fill="#009ECD" fill-opacity="0.3"/>
<path d="M97.4185 570.24L86.6401 563.265L86.6401 573.198L97.4185 580.172L97.4185 570.24ZM97.4185 607.541L86.6401 600.567L86.6401 610.288L97.4185 617.263L97.4185 607.541ZM97.4185 595.072L86.6401 588.098L86.6401 597.819L97.4185 604.794L97.4185 595.072ZM97.4185 582.709L86.6401 575.734L86.6401 585.667L97.4185 592.642L97.4185 582.709ZM97.4185 656.994L86.6401 650.02L86.6401 659.953L90.7613 662.701L97.3128 662.701L97.3128 656.994L97.4185 656.994ZM97.4185 555.234L97.3128 555.234L97.4185 555.234ZM97.4185 557.876L93.403 555.234L86.6401 555.234L86.6401 560.729L97.4185 567.703L97.4185 557.876ZM97.4185 620.01L86.6401 613.036L86.6401 622.757L97.4185 629.732L97.4185 620.01ZM86.6401 662.595L86.9571 662.595L86.6401 662.384L86.6401 662.595ZM97.4185 632.162L86.6401 625.188L86.6401 635.121L97.4185 642.095L97.4185 632.162ZM97.4185 644.631L86.6401 637.657L86.6401 647.59L97.4185 654.564L97.4185 644.631Z" fill="#009ECD" fill-opacity="0.3"/>
<path d="M488.292 175.457L471.173 164.256L471.173 174.189L477.725 178.522L488.186 178.522L488.186 175.457L488.292 175.457ZM488.292 113.323L471.173 102.122L471.173 112.055L488.292 123.256L488.292 113.323ZM488.292 150.625L471.173 139.424L471.173 149.357L488.292 160.558L488.292 150.625ZM488.292 125.792L471.173 114.591L471.173 124.524L488.292 135.725L488.292 125.792ZM488.292 138.156L471.173 126.955L471.173 136.888L488.292 148.089L488.292 138.156ZM488.292 162.988L471.173 151.787L471.173 161.72L488.292 172.921L488.292 162.988ZM471.173 178.522L473.92 178.522L471.173 176.725L471.173 178.522ZM488.292 100.854L482.163 96.8389L471.173 96.8389L471.173 99.5863L488.292 110.787L488.292 100.854ZM488.292 96.8389L486.072 96.8389L488.292 98.3182L488.292 96.8389Z" fill="#009ECD" fill-opacity="0.3"/>
</g>
<defs>
<radialGradient id="paint0_radial_5_4" cx="0" cy="0" r="1" gradientUnits="userSpaceOnUse" gradientTransform="translate(288 384) rotate(90) scale(384 288)">
<stop stop-color="#0046AF"/>
<stop offset="1"/>
</radialGradient>
<radialGradient id="paint1_radial_5_4" cx="0" cy="0" r="1" gradientUnits="userSpaceOnUse" gradientTransform="translate(288 384) rotate(90) scale(299)">
<stop offset="0.234375" stop-color="#001A6E"/>
<stop offset="1"/>
</radialGradient>
<linearGradient id="paint2_linear_5_4" x1="290.008" y1="699.66" x2="290.008" y2="585.661" gradientUnits="userSpaceOnUse">
<stop stop-color="white"/>
<stop offset="1"/>
</linearGradient>
<linearGradient id="paint3_linear_5_4" x1="290.008" y1="59.7401" x2="290.008" y2="173.739" gradientUnits="userSpaceOnUse">
<stop stop-color="white"/>
<stop offset="1"/>
</linearGradient>
<radialGradient id="paint4_radial_5_4" cx="0" cy="0" r="1" gradientUnits="userSpaceOnUse" gradientTransform="translate(373.818 -50.6012) rotate(-90.6232) scale(194.764 14.4472)">
<stop stop-color="#88C7FF"/>
<stop offset="1" stop-color="#368ADE" stop-opacity="0"/>
</radialGradient>
<radialGradient id="paint5_radial_5_4" cx="0" cy="0" r="1" gradientUnits="userSpaceOnUse" gradientTransform="translate(373.818 -50.6015) rotate(-90.6232) scale(181.458 7.37548)">
<stop stop-color="white"/>
<stop offset="0.9553" stop-color="#88C7FF" stop-opacity="0"/>
</radialGradient>
<radialGradient id="paint6_radial_5_4" cx="0" cy="0" r="1" gradientUnits="userSpaceOnUse" gradientTransform="translate(250.568 721.898) rotate(-90.6234) scale(145.531 14.4474)">
<stop stop-color="#88C7FF"/>
<stop offset="1" stop-color="#368ADE" stop-opacity="0"/>
</radialGradient>
<radialGradient id="paint7_radial_5_4" cx="0" cy="0" r="1" gradientUnits="userSpaceOnUse" gradientTransform="translate(250.568 721.899) rotate(-90.6232) scale(135.588 7.37547)">
<stop stop-color="white"/>
<stop offset="0.9553" stop-color="#88C7FF" stop-opacity="0"/>
</radialGradient>
<radialGradient id="paint8_radial_5_4" cx="0" cy="0" r="1" gradientUnits="userSpaceOnUse" gradientTransform="translate(290.235 804.565) rotate(-90.6233) scale(237.642 14.4474)">
<stop stop-color="#88C7FF"/>
<stop offset="1" stop-color="#368ADE" stop-opacity="0"/>
</radialGradient>
<radialGradient id="paint9_radial_5_4" cx="0" cy="0" r="1" gradientUnits="userSpaceOnUse" gradientTransform="translate(290.235 804.565) rotate(-90.6232) scale(221.405 7.37547)">
<stop stop-color="white"/>
<stop offset="0.9553" stop-color="#88C7FF" stop-opacity="0"/>
</radialGradient>
<clipPath id="clip0_5_4">
<rect width="576" height="768" fill="white"/>
</clipPath>
</defs>
</svg>
