<svg xmlns="http://www.w3.org/2000/svg" version="1.1" xmlns:xlink="http://www.w3.org/1999/xlink" xmlns:svgjs="http://svgjs.com/svgjs" id="BgenPttrnSvgRootPreview" width="100%" height="100%"><defs><pattern x="0" y="0" width="1" height="1" patternUnits="userSpaceOnUse" id="BgenPttrnLayer1"><g id="PatternRootContent1"><g id="BgenPttrnLayer1background"><rect width="1" height="1" id="BgenPttrnBackground1" class="color_1 fill_color_1" fill="#000000"></rect></g></g></pattern><pattern x="0" y="0" width="70" height="70" patternUnits="userSpaceOnUse" id="BgenPttrnLayer2" patternTransform="matrix(0.8,0,0,0.8,0,0)"><g id="PatternRootContent2"><g id="BgenPttrnLayer2Element2"><use xlink:href="#BgenPttrnElement2" x="43" y="-29.5" transform="translate(70, -17.5) scale(1) translate(-70, 17.5) rotate(45, 70, -17.5)"></use><use xlink:href="#BgenPttrnElement2" x="-27" y="-29.5" transform="translate(0, -17.5) scale(1) translate(0, 17.5) rotate(45, 0, -17.5)"></use><use xlink:href="#BgenPttrnElement2" x="8" y="5.5" transform="translate(35, 17.5) scale(1) translate(-35, -17.5) rotate(45, 35, 17.5)"></use><use xlink:href="#BgenPttrnElement2" x="-62" y="5.5" transform="translate(-35, 17.5) scale(1) translate(35, -17.5) rotate(45, -35, 17.5)"></use><use xlink:href="#BgenPttrnElement2" x="78" y="5.5" transform="translate(105, 17.5) scale(1) translate(-105, -17.5) rotate(45, 105, 17.5)"></use><use xlink:href="#BgenPttrnElement2" x="43" y="40.5" transform="translate(70, 52.5) scale(1) translate(-70, -52.5) rotate(45, 70, 52.5)"></use><use xlink:href="#BgenPttrnElement2" x="-27" y="40.5" transform="translate(0, 52.5) scale(1) translate(0, -52.5) rotate(45, 0, 52.5)"></use><use xlink:href="#BgenPttrnElement2" x="8" y="75.5" transform="translate(35, 87.5) scale(1) translate(-35, -87.5) rotate(45, 35, 87.5)"></use><use xlink:href="#BgenPttrnElement2" x="8" y="75.5" transform="translate(35, 87.5) scale(1) translate(-35, -87.5) rotate(45, 35, 87.5)"></use></g></g></pattern><symbol id="BgenPttrnElement2"><g class="color_3 fill_color_3" fill="#0e1924"><path d="M14.8,21.200000762939453L5.7,12l9.2,-9.2L12,1.4210854715202004e-14L0,12l12,12l2.8,-2.8Zm10.4,0l9.2,-9.2l-9.2,-9.2L28,1.4210854715202004e-14l12,12l-12,12l-2.8,-2.8Z" transform="matrix(1,0,0,1,0,0)"></path><path d="M28.8,21.200000762939453L19.7,12l9.2,-9.2L26,1.4210854715202004e-14L14,12l12,12l2.8,-2.8Zm10.4,0l9.2,-9.2l-9.2,-9.2L42,1.4210854715202004e-14l12,12l-12,12l-2.8,-2.8Z" transform="matrix(1,0,0,1,0,0)"></path></g></symbol></defs><rect width="100%" height="100%" id="BgenPttrnRctLayer1" fill="url(#BgenPttrnLayer1)"></rect><rect width="100%" height="100%" id="BgenPttrnRctLayer2" fill="url(#BgenPttrnLayer2)"></rect></svg>