<svg xmlns="http://www.w3.org/2000/svg" version="1.1" xmlns:xlink="http://www.w3.org/1999/xlink" xmlns:svgjs="http://svgjs.com/svgjs" id="BgenPttrnSvgRootPreview" width="100%" height="100%"><defs><pattern x="0" y="0" width="1" height="1" patternUnits="userSpaceOnUse" id="BgenPttrnLayer1"><g id="PatternRootContent1"><g id="BgenPttrnLayer1background"><rect width="1" height="1" id="BgenPttrnBackground1" class="color_1 fill_color_1" fill="#000000"></rect></g></g></pattern><pattern x="0" y="0" width="70" height="70" patternUnits="userSpaceOnUse" id="BgenPttrnLayer2" patternTransform="matrix(0.6,0,0,0.6,0,0)"><g id="PatternRootContent2"><g id="BgenPttrnLayer2Element2"><use xlink:href="#BgenPttrnElement2" x="38" y="-49.5" transform="translate(70, -17.5) scale(1) translate(-70, 17.5) rotate(0, 70, -17.5)"></use><use xlink:href="#BgenPttrnElement2" x="-32" y="-49.5" transform="translate(0, -17.5) scale(1) translate(0, 17.5) rotate(0, 0, -17.5)"></use><use xlink:href="#BgenPttrnElement2" x="3" y="-14.5" transform="translate(35, 17.5) scale(1) translate(-35, -17.5) rotate(0, 35, 17.5)"></use><use xlink:href="#BgenPttrnElement2" x="-67" y="-14.5" transform="translate(-35, 17.5) scale(1) translate(35, -17.5) rotate(0, -35, 17.5)"></use><use xlink:href="#BgenPttrnElement2" x="38" y="20.5" transform="translate(70, 52.5) scale(1) translate(-70, -52.5) rotate(0, 70, 52.5)"></use><use xlink:href="#BgenPttrnElement2" x="-32" y="20.5" transform="translate(0, 52.5) scale(1) translate(0, -52.5) rotate(0, 0, 52.5)"></use><use xlink:href="#BgenPttrnElement2" x="3" y="55.5" transform="translate(35, 87.5) scale(1) translate(-35, -87.5) rotate(0, 35, 87.5)"></use><use xlink:href="#BgenPttrnElement2" x="3" y="55.5" transform="translate(35, 87.5) scale(1) translate(-35, -87.5) rotate(0, 35, 87.5)"></use></g></g></pattern><symbol id="BgenPttrnElement2"><g class="color_3 fill_color_3" fill="#0b0229"><path d="M22.8,14.799999237060547L32,5.699999809265137l9.2,9.2L44,12L32,0l-12,12l2.8,2.8Zm0,10.4l9.2,9.2l9.2,-9.2L44,28l-12,12l-12,-12l2.8,-2.8Z" transform="matrix(1,0,0,1,0,0)"></path><path d="M49.2,22.80000114440918L58.3,32l-9.2,9.2L52,44L64,32l-12,-12l-2.8,2.8Zm-10.4,0l-9.2,9.2l9.2,9.2L36,44l-12,-12l12,-12l2.8,2.8Z" transform="matrix(1,0,0,1,0,0)"></path><path d="M41.2,49.20000457763672L32,58.30000305175781l-9.2,-9.2L20,52.000003814697266L32,64l12,-12l-2.8,-2.8Zm0,-10.4l-9.2,-9.2l-9.2,9.2L20,36.000003814697266l12,-12l12,12l-2.8,2.8Z" transform="matrix(1,0,0,1,0,0)"></path><path d="M14.8,41.20000076293945L5.7,32l9.2,-9.2L12,20L0,32l12,12l2.8,-2.8Zm10.4,0l9.2,-9.2l-9.2,-9.2L28,20l12,12l-12,12l-2.8,-2.8Z" transform="matrix(1,0,0,1,0,0)"></path></g></symbol></defs><rect width="100%" height="100%" id="BgenPttrnRctLayer1" fill="url(#BgenPttrnLayer1)"></rect><rect width="100%" height="100%" id="BgenPttrnRctLayer2" fill="url(#BgenPttrnLayer2)"></rect></svg>